<svg xmlns="http://www.w3.org/2000/svg" viewBox="0 0 343.83 333.8"><defs><style>.cls-1{fill:#f55a15;}.cls-2{fill:#f55a16;}.cls-3{fill:#f55d19;}.cls-4{fill:#f55c19;}.cls-5{fill:#f55c18;}</style></defs><g id="Layer_2" data-name="Layer 2"><g id="Layer_1-2" data-name="Layer 1"><path class="cls-1" d="M208.29,0c.64,1.39,2,.85,3.06,1.16,9.53,2.83,16.9,11.26,17.86,20.69,1.11,11-2.93,19.7-12.62,25.08-3.31,1.84-4.27,3.73-4.17,7.31.25,9.65.17,19.32,0,29,0,2.8.81,3.83,3.67,3.72,5-.2,10-.13,14.95,0a22.49,22.49,0,0,1,22.17,21.84c.16,4.49.21,9,0,13.48-.13,3,.72,4.17,3.86,4,5.31-.23,10.63,0,15.94-.08a10.8,10.8,0,0,1,8.47,3.41c3.9,4.1,8,8,11.94,12s4,8.66.66,12-7.91,3.1-11.95-.59a9,9,0,0,1-1.41-1.42c-5.56-8.12-13.28-10.46-22.8-9.38-3.59.41-4.76,1.07-4.74,4.84.16,27.81-.4,55.63.27,83.42.41,17-11.83,27.31-26.59,26.44-11.08-.66-22.24.05-33.36-.23-3.88-.1-5,1.14-4.58,4.78a40.06,40.06,0,0,1,0,8.48c-.4,3.69,1.09,6.17,3.62,8.71,4.33,4.35,7.59,7.63,15.38,5.64,13-3.33,25.56,6.38,28.08,19.21,2.61,13.3-5.37,25.8-18.7,29.29-.76.2-1.69,0-2.06,1h-9c-.75-1.61-2.47-1.45-3.77-2-12.07-5-18.41-17.58-14.74-30.18.89-3.05.74-5.14-1.76-6.87-11.47-7.93-15.31-19-13.17-32.41.74-4.66-1.2-5.73-5.66-5.67-19.43.25-38.85.12-58.28.1-14.94,0-24.46-9-24.83-23.89-.09-3.43-1.18-4.2-4.28-4-4.47.22-9,.12-13.45,0-5.52-.09-8.75-3.13-8.72-8s3.25-7.85,8.84-8a127.09,127.09,0,0,1,13,.06c3.8.31,4.66-1,4.64-4.69-.15-32-.06-63.93-.11-95.9,0-5.63.85-11,4.17-15.63,4.42-6.19,10.4-9.71,18.09-9.83,7.3-.11,14.61-.17,21.91,0,3.12.09,4.29-1,3.85-4a1.67,1.67,0,0,1,0-.5c1.85-11.6-1.41-21-11.25-28-3.34-2.38-6-5.75-8.85-8.76-1.42-1.5-2.46-2.17-4.53-.67-9.33,6.76-19.18,7.19-28.78.91C69.64,40.08,66.07,31.21,68,20.82,70,9.77,77,3,88.08.69c.25,0,.42-.45.62-.69h8c.18.26.31.69.53.75,13.13,3.49,19.7,12.13,20,25.63,0,1.95,1.13,3,2.3,4.17,5.52,5.54,11.1,11,16.53,16.62,14.37,14.85,11.64,7.9,11.89,28.89.13,10.42,0,10.42,10.45,10.82,4.81.18,7.83,2.65,8.35,6.84.68,5.42-2.87,9.13-9.11,9.16-15.94.08-31.88,0-47.81,0-7.63,0-9.81,2.12-9.84,9.72,0,12,0,24,0,36q0,41.21,0,82.41c0,7.37,2.32,9.73,9.41,9.74q59.52,0,119,0c6.43,0,8.88-2.36,8.89-8.59q0-60.43,0-120.87c0-6-2.39-8.33-8.51-8.35-11.79,0-23.58,0-35.36,0-6.19,0-9.93-3.14-9.91-8.08S186.87,87,193,87c2.9,0,3.64-1,3.6-3.72-.14-9.82-.19-19.65,0-29.47.07-3.39-.9-5.17-4-6.88-8.81-4.76-13.18-12.69-12.74-22.61.46-10.55,6-18,15.76-22.29,1.3-.56,3-.39,3.77-2Zm-3.92,16.32a9.16,9.16,0,0,0-8.69,9.14,8.92,8.92,0,0,0,9.13,8.61,8.61,8.61,0,0,0,8.55-9A8.86,8.86,0,0,0,204.37,16.32Zm16,292.4a8.55,8.55,0,0,0-8.57-9,8.86,8.86,0,0,0-9.08,8.61,9.14,9.14,0,0,0,8.71,9.13A8.86,8.86,0,0,0,220.36,308.72ZM92.2,34.07a8.86,8.86,0,0,0,9-8.67,9.13,9.13,0,0,0-8.74-9.08,8.84,8.84,0,0,0-8.89,8.79A8.58,8.58,0,0,0,92.2,34.07Z"/><path class="cls-1" d="M343.83,184.89c-1.55.57-1.35,2.16-1.79,3.31-4.57,11.89-16,18.68-27.94,16.45a24.9,24.9,0,0,1-20.32-24.74c0-12.43,8.54-22.37,21-24.6,11.3-2,23,5.06,27.16,16.26.54,1.45.12,3.38,1.85,4.33Zm-16.48-5.07a9,9,0,0,0-9-8.75,8.91,8.91,0,0,0-8.54,9.16,8.67,8.67,0,0,0,8.95,8.66A8.8,8.8,0,0,0,327.35,179.82Z"/><path class="cls-2" d="M24.79,243.19A24.8,24.8,0,0,1,0,218.08C.09,204.31,11.56,193,25.17,193.25a25.16,25.16,0,0,1,24.59,25A24.9,24.9,0,0,1,24.79,243.19Zm.05-33.76A8.9,8.9,0,0,0,16,218.29a8.77,8.77,0,0,0,8.89,8.76,8.88,8.88,0,0,0,8.9-8.79A9,9,0,0,0,24.84,209.43Z"/><path class="cls-1" d="M168.79,114.72q23.4,0,46.82,0c7.4,0,9.95,2.48,10,9.79q.06,47.21,0,94.4c0,7.32-2.66,10-9.86,10q-30.63,0-61.26,0c-6.27,0-9.89-3-9.86-8s3.64-8,9.95-8c16.61,0,33.21-.22,49.81.12,4.62.09,5.34-1.41,5.31-5.58-.19-23.8-.24-47.62,0-71.42.05-4.66-1.44-5.38-5.59-5.34q-35.37.29-70.73,0c-4.34,0-5.87.81-5.83,5.61.27,27,.13,53.94.13,80.91a33.14,33.14,0,0,1-.14,5,7.31,7.31,0,0,1-6.51,6.57c-3.85.59-6.77-1-8.5-4.61a12,12,0,0,1-.84-5.37q0-47,0-93.91c0-7.5,2.69-10.12,10.26-10.13Q145.37,114.69,168.79,114.72Z"/><path class="cls-3" d="M194.75,137.05a8,8,0,0,1,7.68,8.14,7.69,7.69,0,0,1-8.35,7.82,7.92,7.92,0,0,1-7.56-8.22A8.34,8.34,0,0,1,194.75,137.05Z"/><path class="cls-4" d="M202.42,171.15a7.7,7.7,0,0,1-7.87,7.82,7.94,7.94,0,0,1-8-7.79,8.27,8.27,0,0,1,8.26-8.18A7.9,7.9,0,0,1,202.42,171.15Z"/><path class="cls-3" d="M150.74,145.15A7.63,7.63,0,0,1,143,153a7.93,7.93,0,0,1-8.09-8.22,8.3,8.3,0,0,1,8.18-7.76A7.91,7.91,0,0,1,150.74,145.15Z"/><path class="cls-3" d="M176.58,145.23a7.65,7.65,0,0,1-7.87,7.79,7.93,7.93,0,0,1-8-7.78,8.33,8.33,0,0,1,8.28-8.19A7.93,7.93,0,0,1,176.58,145.23Z"/><path class="cls-3" d="M150.74,171.24a7.65,7.65,0,0,1-7.93,7.73,7.93,7.93,0,0,1-7.94-7.88,8.23,8.23,0,0,1,8.34-8.09A7.89,7.89,0,0,1,150.74,171.24Z"/><path class="cls-3" d="M176.58,171.23a7.67,7.67,0,0,1-7.94,7.74,8,8,0,0,1-7.95-7.87A8.29,8.29,0,0,1,169,163,7.91,7.91,0,0,1,176.58,171.23Z"/><path class="cls-5" d="M150.74,197.17a7.69,7.69,0,0,1-7.94,7.75,8,8,0,0,1-7.93-7.9,8.2,8.2,0,0,1,8.34-8.07A7.85,7.85,0,0,1,150.74,197.17Z"/><path class="cls-3" d="M169,188.94a7.87,7.87,0,0,1,7.63,8.14,7.74,7.74,0,0,1-8.36,7.83,8.06,8.06,0,0,1-7.53-8.3A8.25,8.25,0,0,1,169,188.94Z"/><path class="cls-4" d="M194.59,204.92a8,8,0,0,1-8.07-7.76,8.25,8.25,0,0,1,8.21-8.22,7.87,7.87,0,0,1,7.69,8.09A7.76,7.76,0,0,1,194.59,204.92Z"/></g></g></svg>