<svg xmlns="http://www.w3.org/2000/svg" viewBox="0 0 218.82 278.81"><defs><style>.cls-1{fill:#f55a15;}.cls-2{fill:#f55b17;}.cls-3{fill:#f55914;}</style></defs><g id="Layer_2" data-name="Layer 2"><g id="Layer_1-2" data-name="Layer 1"><path class="cls-1" d="M218.82,96.93v27c-1.73.88-1.11,2.64-1.35,4-5.35,29.49-19.92,53.25-44.05,71-2.21,1.63-2.63,3.44-2.63,5.91.07,20.79-.08,41.59.13,62.39.05,4.85-1,8.76-5.06,11.57h-6c-13.11-7.05-27.22-12-40.34-18.95-7.14-3.78-13.1-3.78-20.24,0-13.12,7-27.23,11.9-40.34,18.95H53c-4.1-2.81-5.11-6.72-5.06-11.58.21-20.62,0-41.26.16-61.88a7.62,7.62,0,0,0-3.46-7Q12,174,2.66,134.25C1.84,130.79,2.11,127,0,123.92v-28c1.83-1.4,1.3-3.62,1.7-5.43Q16.81,20.91,85.56,2.61C89,1.69,92.78,2.1,95.92,0h26c.36,1,1.26.86,2,1,45.67,6.41,81.68,39.53,92.19,84.62C217,89.37,216.81,93.42,218.82,96.93Zm-16,13c0-51.78-42.13-94-93.57-93.9S15.93,58.53,16,110.35c.1,51.34,42.33,93.51,93.56,93.42S202.85,161.37,202.79,110ZM64,257.48c2.23.28,3.57-.86,5-1.51,11.52-5.16,23.06-10.24,34.48-15.61a12.82,12.82,0,0,1,11.85.06c10.8,5.1,21.75,9.9,32.67,14.77,2.06.91,3.95,2.41,6.74,2.35,0-14.22-.17-28.32.1-42.42.08-4.68-1.25-4.68-5-3.16a106.2,106.2,0,0,1-53.25,7.12,116.26,116.26,0,0,1-29.32-7.6c-1.46-.59-3.31-1.92-3.31,1.26Q64,235.11,64,257.48Z"/><path class="cls-2" d="M133.51,110c0,4.16.1,8.32,0,12.48-.33,12.08-7.89,19.5-19.88,19.58-3.49,0-7,.1-10.48,0-8.68-.33-16.29-6.55-17.24-15.17a153.43,153.43,0,0,1,0-33.87c.95-8.42,8.35-14.62,16.81-15,4.32-.22,8.66-.21,13,0,9,.38,16.3,6.72,17.32,15.65.63,5.42.12,11,.12,16.45Zm-32.09-.26h0c0,1.83,0,3.66,0,5.49.09,12.41-1.33,10.56,11.54,10.81,3.23.06,4.54-1.25,4.51-4.39-.07-5.49,0-11,0-16.46-.13-13,1.76-11.08-12-11.28-2.77,0-4,1.22-4,3.86Z"/><path class="cls-3" d="M138.82,114.14c0-6-.1-12,0-18a18.31,18.31,0,0,1,17.94-18.33c4.15-.15,8.32-.17,12.47,0,10.51.51,17.65,8.82,17.6,20.26-.06,11-7.41,19.27-17.66,19.76-3.65.18-7.33.2-11,0-2.57-.13-3.56.64-3.42,3.33.2,4,.14,8,0,12-.15,5.53-3.24,8.8-8.09,8.77s-7.82-3.28-7.89-8.89C138.76,126.78,138.82,120.46,138.82,114.14Zm23.28-12.23c1.33,0,2.66-.06,4,0,3,.15,4.75-.77,4.74-4.17,0-3.61-2.17-4-5-3.87-2.5.08-5,.06-7.48,0-3.82-.07-3.41,2.61-3.61,5.16-.26,3.23,1.8,2.89,3.82,2.85C159.77,101.89,160.93,101.91,162.1,101.91Z"/><path class="cls-3" d="M48,115.42c0-6.15-.09-12.31,0-18.46.05-2.4-.73-3.27-3.12-3.09a27.17,27.17,0,0,1-6-.12,7.82,7.82,0,0,1-6.88-8.41c.43-4.31,2.82-7.33,7.29-7.41q16.71-.32,33.43,0c4.4.09,7.25,3.65,7.2,8s-3,7.33-7.42,8c-2.73.38-6.57-1.31-8,.91s-.55,5.77-.57,8.74c0,9.65,0,19.29,0,28.94,0,6.1-2.79,9.42-7.76,9.54-5.21.12-8.19-3.31-8.25-9.6C48,126.73,48,121.08,48,115.42Z"/></g></g></svg>