<svg xmlns="http://www.w3.org/2000/svg" viewBox="0 0 209.85 272.85"><defs><style>.cls-1{fill:#f55a15;}</style></defs><g id="Layer_2" data-name="Layer 2"><g id="Layer_1-2" data-name="Layer 1"><path class="cls-1" d="M132.91,272.85H76c-1.17-1.85-3.25-1.35-4.89-1.75-37.22-9-60.42-32-69.41-69.26-.4-1.65.15-3.73-1.65-5V25c1.52-.61,1.31-2.2,1.73-3.33a32.09,32.09,0,0,1,20-19.9C22.82,1.35,24.4,1.53,25,0H38c21.36,8.35,26.7,16.29,26.7,39.77V52c14.47-6.44,27.24-5.09,38.58,5.21,2.32,2.11,3.16,0,4.41-1.06,9-7.43,19.06-9.83,30.34-6.87,2.3.61,4.51,1.58,7.19,2.53,0-6.7-.09-12.85,0-19,.25-14.46,8.34-26.06,21.21-30.88,1.81-.68,4-.38,5.47-1.9h12c4.64,2.23,9.63,3.66,13.83,6.93,6.37,5,9.44,11.85,12.15,19.06v170.9c-1.8,1.22-1.26,3.3-1.65,5-8.48,36.15-30.92,58.74-66.46,68.67C138.8,271.33,135.54,270.91,132.91,272.85Zm-30.36-96c2.19,2,3.43,3.16,4.6,4.32C121,194.91,128.58,211.41,129,231c.14,6.21-2.93,9.85-8,9.81-4.88,0-7.84-3.48-8.08-9.41-1-25.7-18.08-46.75-43-53a60.84,60.84,0,0,0-12.84-1.63c-5.42-.17-8.81-3.61-8.65-8.31s3.45-7.49,8.69-7.71c1.66-.06,3.33,0,5,0,22.14,0,44.29.09,66.43,0,9.78-.06,16.66-7,16.56-16.23-.11-9-7-15.6-16.54-15.63-24.31-.06-48.62-.13-72.92,0a39.74,39.74,0,0,0-38.9,33.58c-1.26,7.62-.68,15.29-.59,22.93A72.42,72.42,0,0,0,68.89,254c11.6,3.33,23.4,2.81,35.19,2.76,10.3,0,20.66.77,30.87-1.31,34.82-7.13,58.71-36.26,58.77-71.91q.14-74.68,0-149.36a31.4,31.4,0,0,0-.1-3.5,16.1,16.1,0,0,0-31.16-4.11c-1.09,2.89-1,5.89-1,8.87,0,35.64,0,71.27,0,106.9,0,20.89-13.58,34.38-34.37,34.46C119.34,176.86,111.56,176.84,102.55,176.84ZM16.12,129.21c9.24-8.29,18.8-13.66,30.06-15.59,2.29-.39,2.17-2.13,2.17-3.82,0-25.95.09-51.89-.11-77.84A15.79,15.79,0,0,0,32.42,16,16,16,0,0,0,16.18,32.16C16,64.08,16.12,96,16.12,129.21ZM145.18,96.32c0-5.16.1-10.32,0-15.48-.23-9.77-7-16.79-16.06-16.76s-16,7.19-16.08,16.82c-.1,9.15.13,18.31-.11,27.45-.09,3.56,1,4.46,4.5,4.45,8.59,0,17.33-1.15,25.52,2.87,2.47,1.22,2.23-1,2.24-2.38C145.21,107.63,145.19,102,145.18,96.32ZM64.73,94h-.07c0,5.15.06,10.31,0,15.46,0,2.23.57,3.35,3.07,3.32,8.65-.11,17.29-.09,25.94,0,2.28,0,3.27-.63,3.25-3.09-.11-10.15.2-20.3-.15-30.43a16,16,0,0,0-32,.28C64.55,84.32,64.73,89.15,64.73,94Z"/></g></g></svg>