<svg xmlns="http://www.w3.org/2000/svg" viewBox="0 0 318.83 155.81"><defs><style>.cls-1{fill:#f55914;}</style></defs><g id="Layer_2" data-name="Layer 2"><g id="Layer_1-2" data-name="Layer 1"><path class="cls-1" d="M239.87,0h12c.8,1.61,2.33.91,3.53,1C286.94,3.9,308.59,22.73,316,53.59c1,4.1.81,8.46,2.8,12.33v5a16.64,16.64,0,0,0,0,12v4c-1.84,1.79-1.41,4.28-1.9,6.44a88.62,88.62,0,0,1-13.83,32.31c-12.1,17.13-28.54,26.53-49.6,27.43-34,1.46-59.87-13.67-80.09-39.84C168.66,107.09,170,98,175.7,92.86a15.31,15.31,0,0,1,20.51-.12,72,72,0,0,1,6.38,7c9.8,11.27,21.73,18.89,36.6,21.68,20,3.76,34.47-3,42.47-20.38a60.21,60.21,0,0,0,5-36.46c-3.73-21.13-16.16-31.85-37.52-32.82-17.13-.78-30.93,6.4-43.47,17-11.89,10-21.77,22-31.6,33.93-13.09,15.94-25.63,32.37-40.89,46.39-13.7,12.6-29,22.28-47.75,25.38-1.82.3-4-.52-5.48,1.36H68c-.19-.76-.77-.93-1.46-1.05-36.14-6.34-56.09-29.25-65.06-63.45-.3-1.16.19-2.78-1.44-3.42v-22C1.79,65,1.37,63,1.8,61.57,11.16,29,31.91,8.5,65.52,1.58,67.66,1.14,70.21,2.05,72,0H83c.45,1.29,1.6.9,2.51,1,25.15,2.77,44.7,15.08,59.6,35.12,6.11,8.21,5,17.57-2.28,23-7.49,5.54-16.78,3.59-22.91-4.85A55.54,55.54,0,0,0,99.62,36.88C76,25,49.28,34.14,36.15,57.87c-13.53,24.45,3.33,52.67,19.93,61.51a38.23,38.23,0,0,0,19.14,4.69c14.42-.31,25.5-7.76,35.73-16.83,11.75-10.42,21.51-22.66,31.39-34.79,12.82-15.73,25.44-31.65,40.74-45.14,14.85-13.09,31.36-22.9,51.33-25.94C236.22,1.09,238.43,1.91,239.87,0Z"/></g></g></svg>